<svg width="192" height="192" viewBox="0 0 192 192" fill="none" xmlns="http://www.w3.org/2000/svg">
  <rect width="192" height="192" rx="42" fill="#0F172A"/>
  <path d="M44 53C44 45.8203 49.8203 40 57 40H135C142.18 40 148 45.8203 148 53V139C148 146.18 142.18 152 135 152H57C49.8203 152 44 146.18 44 139V53Z" fill="#F6FAFB"/>
  <path d="M68 73C68 67.4772 72.4772 63 78 63H119C124.523 63 129 67.4772 129 73C129 78.5228 124.523 83 119 83H78C72.4772 83 68 78.5228 68 73Z" fill="#0B6DA6"/>
  <path d="M68 103C68 97.4772 72.4772 93 78 93H111C116.523 93 121 97.4772 121 103C121 108.523 116.523 113 111 113H78C72.4772 113 68 108.523 68 103Z" fill="#49BEB9"/>
  <circle cx="130" cy="122" r="16" fill="#F7B444"/>
  <path d="M125 122L129 126L137 118" stroke="#0F172A" stroke-width="4" stroke-linecap="round" stroke-linejoin="round"/>
</svg>
