<svg width="512" height="512" viewBox="0 0 512 512" fill="none" xmlns="http://www.w3.org/2000/svg">
  <rect width="512" height="512" rx="112" fill="#0F172A"/>
  <path d="M118 144C118 124.118 134.118 108 154 108H358C377.882 108 394 124.118 394 144V372C394 391.882 377.882 408 358 408H154C134.118 408 118 391.882 118 372V144Z" fill="#F6FAFB"/>
  <path d="M178 198C178 183.641 189.641 172 204 172H312C326.359 172 338 183.641 338 198C338 212.359 326.359 224 312 224H204C189.641 224 178 212.359 178 198Z" fill="#0B6DA6"/>
  <path d="M178 275C178 260.641 189.641 249 204 249H286C300.359 249 312 260.641 312 275C312 289.359 300.359 301 286 301H204C189.641 301 178 289.359 178 275Z" fill="#49BEB9"/>
  <circle cx="338" cy="326" r="41" fill="#F7B444"/>
  <path d="M325 326L336 337L357 316" stroke="#0F172A" stroke-width="10" stroke-linecap="round" stroke-linejoin="round"/>
</svg>
